<svg viewBox="0 0 312 76" version="1.1" xmlns="http://www.w3.org/2000/svg" xmlns:xlink="http://www.w3.org/1999/xlink">
    <defs>
        <clipPath id="clip-g">
            <rect x="0" y="0" width="81.5" height="76"></rect>
        </clipPath>
        <clipPath id="clip-h">
            <rect x="0" y="0" width="120.3" height="76"></rect>
        </clipPath>
        <clipPath id="clip-s">
            <rect x="0" y="0" width="57.8" height="76"></rect>
        </clipPath>
        <clipPath id="clip-t">
            <rect x="-2.84217094e-14" y="0" width="52" height="76"></rect>
        </clipPath>
    </defs>
    <g id="Page-1" stroke="none" stroke-width="1" fill="none" fill-rule="evenodd">
        <g class="ghost" transform="translate(0.200000, 0.000000)">
            <g id="G" clip-path="url(#clip-g)"> 
                <path className="letter letter-g" d="M38,76 C15.8,76 1.42108547e-14,60.4 1.42108547e-14,38.7 C1.42108547e-14,16.9 16.5,0.8 38.4,0.8 C52.8,0.8 61,6 66.8,12.4 L52.2,26.8 C48.1,22.8 44.2,20.5 37.9,20.5 C29.8,20.6 23.8,27.5 23.8,38 C23.8,51.3 29.7,57.8 39.2,57.8 C46.3,57.8 50.5,54.5 52.8,49.7 L37.8,49.7 L37.8,32.4 L75.7,32.4 C75.7,62.1 60.7,76 38,76 Z" fill="#FFFFFF" fill-rule="nonzero"></path>
            </g>
            <g id="H" transform="translate(81.500000, 0.000000)" clip-path="url(#clip-h)"> 
                <polygon className="letter letter-h" fill="#FFFFFF" fill-rule="nonzero" points="67.9 0.9 43.5 0.9 43.5 27.8 25.1 27.8 25.1 0.9 0.7 0.9 0.7 73.8 25.1 73.8 25.1 48.3 43.5 48.3 43.5 73.8 68 73.8"></polygon>
            </g>
            <g id="O">
                <path d="M149.998816,13.3380101 L149.999438,63.3626555 C148.417297,61.6702588 147.000262,59.8310423 145.748329,57.8450007 C142.104677,52.0647829 140.282878,45.5665143 140.282878,38.35 C140.282878,31.1334857 142.104677,24.6352171 145.748329,18.8549993 C147.000098,16.869218 148.416925,15.0302234 149.998816,13.3380101 Z" id="Combined-Shape" fill="#E4E8EB"></path>
            </g>
            <g id="S" transform="translate(201.800000, 0.000000)" clip-path="url(#clip-s)"> 
                <path className="letter letter-s" d="M57.3,46.9 C57.3,46.6 57.2,46.3 57.1,46 C57,45.6 57,45.2 56.9,44.8 C56.8,44.5 56.7,44.2 56.7,43.9 C56.6,43.6 56.5,43.2 56.4,42.9 C56.3,42.6 56.2,42.3 56.1,42.1 C56,41.8 55.9,41.5 55.7,41.2 C55.6,40.9 55.4,40.7 55.3,40.4 C55.2,40.1 55,39.8 54.8,39.6 C54.7,39.4 54.5,39.1 54.3,38.9 C54.1,38.6 54,38.4 53.8,38.2 C53.6,38 53.4,37.8 53.3,37.5 C53.1,37.3 52.9,37 52.7,36.8 C52.5,36.6 52.3,36.4 52.1,36.2 C51.9,36 51.6,35.8 51.4,35.6 C51.2,35.4 51,35.2 50.7,35.1 C50.4,34.9 50.2,34.7 49.9,34.5 C49.7,34.3 49.4,34.2 49.2,34 C48.9,33.8 48.6,33.6 48.3,33.5 C48,33.3 47.8,33.2 47.5,33 C47.2,32.8 46.9,32.7 46.5,32.5 C46.2,32.4 46,32.2 45.7,32.1 C45.3,31.9 45,31.8 44.6,31.6 C44.3,31.5 44,31.4 43.8,31.2 C43.4,31 43,30.9 42.6,30.7 C42.3,30.6 42.1,30.5 41.8,30.4 C41.3,30.2 40.8,30.1 40.3,29.9 C40.1,29.8 39.8,29.7 39.6,29.7 C38.8,29.5 38.1,29.2 37.3,29 C36.9,28.9 36.5,28.8 36.1,28.6 C35.4,28.4 34.7,28.2 34.1,28 C33.1,27.7 32.3,27.4 31.5,27.1 C31.1,27 30.8,26.8 30.4,26.7 C29.7,26.4 29.2,26.2 28.7,25.9 C28.5,25.8 28.2,25.7 28,25.5 C26.4,24.5 26,23.6 26,22.4 C26,20.4 27.5,18.6 31.5,18.3 C31.8,18.3 32,18.3 32.3,18.3 C33,18.3 33.6,18.3 34.3,18.4 C38.6,18.8 42.4,20.4 46.5,23.2 L55.5,6.9 C55.3,6.8 55.1,6.6 54.9,6.5 C54.2,6 53.4,5.6 52.5,5.1 C51.3,4.5 50.1,3.9 48.7,3.4 C47.9,3.1 47.1,2.8 46.3,2.6 C45.6,2.4 44.8,2.1 44,1.9 C43.7,1.8 43.5,1.8 43.2,1.7 C42.4,1.5 41.6,1.3 40.8,1.2 C38.4,0.8 35.8,0.5 33.2,0.5 C32.4,0.5 31.7,0.5 30.9,0.6 C30.7,0.6 30.6,0.6 30.4,0.6 C29.7,0.6 28.9,0.7 28.2,0.8 C28.1,0.8 28,0.8 27.9,0.8 C27.2,0.9 26.6,0.9 26,1 C25.9,1 25.7,1 25.6,1.1 C24.9,1.2 24.2,1.3 23.6,1.5 C23.5,1.5 23.4,1.6 23.3,1.6 C22.7,1.7 22.1,1.9 21.5,2 C21.4,2 21.3,2.1 21.2,2.1 C20.6,2.3 19.9,2.5 19.3,2.7 C19.2,2.7 19.1,2.8 19,2.8 C18.4,3 17.9,3.2 17.3,3.5 C17.3,3.5 17.2,3.5 17.2,3.5 C16.6,3.7 16.1,4 15.5,4.3 C15.4,4.4 15.3,4.4 15.2,4.5 C14.1,5.1 13.1,5.7 12.1,6.4 C12,6.5 11.9,6.5 11.9,6.6 C11.4,7 11,7.3 10.5,7.7 C10.5,7.7 10.5,7.7 10.4,7.8 C10,8.2 9.6,8.6 9.2,9 C9.1,9.1 9.1,9.1 9,9.2 C8.6,9.6 8.2,10.1 7.8,10.5 C7.8,10.5 7.7,10.6 7.7,10.6 C7.4,11 7,11.5 6.7,12 C6.7,12 6.6,12.1 6.6,12.1 C6.3,12.6 6,13.1 5.7,13.6 C5.7,13.7 5.6,13.7 5.6,13.8 C4,16.9 3.1,20.6 3.1,24.8 C3.1,32.9 6.2,38.1 12.3,41.9 C12.3,41.9 12.3,41.9 12.3,41.9 C12.6,42.1 12.9,42.3 13.2,42.4 C13.4,42.5 13.6,42.6 13.8,42.7 C14.2,42.9 14.7,43.2 15.1,43.4 C15.4,43.6 15.7,43.7 16,43.9 C16.3,44 16.6,44.2 16.8,44.3 C17.2,44.5 17.6,44.6 17.9,44.8 C18.1,44.9 18.3,45 18.5,45.1 C19.1,45.3 19.7,45.5 20.3,45.8 C20.5,45.9 20.7,45.9 20.9,46 C21.6,46.2 22.3,46.5 23,46.7 C23,46.7 23,46.7 23,46.7 C23,46.7 23,46.7 23,46.7 C23.5,46.8 23.9,47 24.3,47.1 C24.5,47.2 24.6,47.2 24.8,47.3 C25.1,47.4 25.3,47.5 25.5,47.5 C25.9,47.6 26.3,47.7 26.6,47.9 C26.7,47.9 26.8,48 26.9,48 C27.2,48.1 27.4,48.2 27.7,48.3 C27.7,48.3 27.8,48.3 27.8,48.3 C28.6,48.6 29.3,48.8 29.9,49.1 C33.3,50.5 34.6,51.9 34.6,54.2 C34.6,56.7 32.1,58.2 28.6,58.2 C22.5,58.2 16.8,55.8 10.2,50.8 C8.1,56.7 4.6,61.8 0,65.8 C6.8,71.7 17.1,76 29,76 C46.6,76 57.6,66.2 57.6,51.6 C57.6,50.7 57.6,49.9 57.5,49.1 C57.5,48.4 57.4,47.6 57.3,46.9 Z" fill="#FFFFFF" fill-rule="nonzero" ></path>
            </g>
            <g id="T" transform="translate(259.600000, 0.000000)" clip-path="url(#clip-t)"> 
                <polygon className="letter letter-t" fill="#FFFFFF" fill-rule="nonzero" points="37.6 20.5 37.6 74.8 14.2 74.8 14.2 20.5 1.13686838e-13 20.5 1.13686838e-13 1.9 52 1.9 52 20.5"></polygon>
            </g>
        </g>
    </g>
</svg>