<svg viewBox="0 0 661 259" version="1.1" xmlns="http://www.w3.org/2000/svg" xmlns:xlink="http://www.w3.org/1999/xlink">
    <defs>
        <clipPath id="clip-ghost-g">
            <rect x="0" y="0" width="81.5" height="76"></rect>
        </clipPath>
        <clipPath id="clip-ghost-h">
            <rect x="81.5" y="0" width="120.3" height="76"></rect>
        </clipPath>
        <clipPath id="clip-ghost-s">
            <rect x="202" y="0" width="57.8" height="76"></rect>
        </clipPath>
        <clipPath id="clip-ghost-t">
            <rect x="260" y="0" width="52" height="76"></rect>
        </clipPath>

        <clipPath id="clip-tech-t">
            <rect x="0" y="0.5" width="165" height="254.5"></rect>
        </clipPath>
        <clipPath id="clip-tech-e">
            <rect x="166" y="0.5" width="152" height="254.5"></rect>
        </clipPath>
        <clipPath id="clip-tech-c">
            <rect x="311.2" y="0.5" width="180" height="254.5"></rect>
        </clipPath>
        <clipPath id="clip-tech-h">
            <rect x="489" y="0.5" width="180" height="254.5"></rect>
        </clipPath>
    </defs>
    <g id="Page-1" stroke="none" stroke-width="1" fill="none" fill-rule="evenodd">
        <g class="tech" transform="translate(1.000000, 71.000000)" fill="#FFFFFF">
            <g clip-path="url(#clip-tech-t)"> 
                <polygon class="letter letter-t" points="51.8320154 54.8281769 0.317579487 54.8281769 0.317579487 3.89068013 157.712378 3.89068013 157.712378 54.8281769 110.348583 54.8281769 110.348583 183.973712 51.8320154 183.973712"></polygon>
            </g>

            <g clip-path="url(#clip-tech-e)"> 
                <polygon class="letter letter-e" points="165.095123 3.89043109 311.54385 3.89043109 311.54385 53.2847196 222.612216 53.2847196 222.612216 71.5500304 296.601543 71.5500304 296.601543 115.027165 222.612216 115.027165 222.612216 134.580005 311.54385 134.580005 311.54385 183.974293 165.095123 183.974293"></polygon>
            </g>

            <g clip-path="url(#clip-tech-c)"> 
                <path class="letter letter-c" d="M310.698282,94.4465436 L310.698282,93.9318641 C310.698282,40.1644603 351.460067,0.0319121795 403.724939,0.0319121795 C442.235416,0.0319121795 468.243333,19.3257519 482.998032,46.8528032 L434.734378,75.9238929 C428.231984,63.0602263 418.979375,54.0566558 402.974503,54.0566558 C383.219112,54.0566558 370.215154,71.8081173 370.215154,93.4180147 L370.215154,93.9318641 C370.215154,117.34314 383.719679,133.807903 402.974503,133.807903 C419.479112,133.807903 428.732551,124.546162 435.984551,111.169476 L484.248205,139.210377 C469.493506,165.965409 444.986461,187.833476 401.474461,187.833476 C352.960109,187.833476 310.698282,150.272665 310.698282,94.4465436"></path>
            </g>

            <g clip-path="url(#clip-tech-h)"> 
                <polygon class="letter letter-h" points="488.818725 3.89043109 547.335292 3.89043109 547.335292 67.4342548 600.851167 67.4342548 600.851167 3.89043109 659.367734 3.89043109 659.367734 183.974293 600.851167 183.974293 600.851167 119.401111 547.335292 119.401111 547.335292 183.974293 488.818725 183.974293"></polygon>
            </g>
        </g>
        <g class="ghost" transform="translate(0.200000, 0.500000)">
            <g clip-path="url(#clip-ghost-g)"> 
                <path class="letter letter-g" d="M38,75.5 C15.8,75.5 0,59.9 0,38.2 C0,16.4 16.5,0.3 38.4,0.3 C52.8,0.3 61,5.5 66.8,11.9 L52.2,26.3 C48.1,22.3 44.2,20 37.9,20 C29.8,20.1 23.8,27 23.8,37.5 C23.8,50.8 29.7,57.3 39.2,57.3 C46.3,57.3 50.5,54 52.8,49.2 L37.8,49.2 L37.8,31.9 L75.7,31.9 C75.7,61.6 60.7,75.5 38,75.5 Z" fill="#FFFFFF" fill-rule="nonzero"></path>
            </g>
            <g clip-path="url(#clip-ghost-h)"> 
                <polygon class="letter letter-h" fill="#FFFFFF" fill-rule="nonzero" points="148.7 1.4 124.3 1.4 124.3 28.3 105.9 28.3 105.9 1.4 81.5 1.4 81.5 74.3 105.9 74.3 105.9 48.8 124.3 48.8 124.3 74.3 148.8 74.3"></polygon>
            </g>
            <g> 
                <path class="letter letter-o" d="M160.674933,70.9547181 C154.234133,67.6617456 149.191982,63.1252184 145.548329,57.3450007 C141.904677,51.5647829 140.082878,45.0665143 140.082878,37.85 C140.082878,30.6334857 141.904677,24.1352171 145.548329,18.3549993 C149.191982,12.5747816 154.234133,8.03825445 160.674933,4.7452819 C163.821468,3.13656077 150.832646,19.7853208 150.904818,36.7526042 C150.980378,54.5165103 163.969199,72.6389695 160.674933,70.9547181 Z" fill="#E4E8EB"></path>
            </g>
            <g clip-path="url(#clip-ghost-s)"> 
                <path class="letter letter-s" d="M259.1,46.4 C259.1,46.1 259,45.8 258.9,45.5 C258.8,45.1 258.8,44.7 258.7,44.3 C258.6,44 258.5,43.7 258.5,43.4 C258.4,43.1 258.3,42.7 258.2,42.4 C258.1,42.1 258,41.8 257.9,41.6 C257.8,41.3 257.7,41 257.5,40.7 C257.4,40.4 257.2,40.2 257.1,39.9 C257,39.6 256.8,39.3 256.6,39.1 C256.5,38.9 256.3,38.6 256.1,38.4 C255.9,38.1 255.8,37.9 255.6,37.7 C255.4,37.5 255.2,37.3 255.1,37 C254.9,36.8 254.7,36.5 254.5,36.3 C254.3,36.1 254.1,35.9 253.9,35.7 C253.7,35.5 253.4,35.3 253.2,35.1 C253,34.9 252.8,34.7 252.5,34.6 C252.2,34.4 252,34.2 251.7,34 C251.5,33.8 251.2,33.7 251,33.5 C250.7,33.3 250.4,33.1 250.1,33 C249.8,32.8 249.6,32.7 249.3,32.5 C249,32.3 248.7,32.2 248.3,32 C248,31.9 247.8,31.7 247.5,31.6 C247.1,31.4 246.8,31.3 246.4,31.1 C246.1,31 245.8,30.9 245.6,30.7 C245.2,30.5 244.8,30.4 244.4,30.2 C244.1,30.1 243.9,30 243.6,29.9 C243.1,29.7 242.6,29.6 242.1,29.4 C241.9,29.3 241.6,29.2 241.4,29.2 C240.6,29 239.9,28.7 239.1,28.5 C238.7,28.4 238.3,28.3 237.9,28.1 C237.2,27.9 236.5,27.7 235.9,27.5 C234.9,27.2 234.1,26.9 233.3,26.6 C232.9,26.5 232.6,26.3 232.2,26.2 C231.5,25.9 231,25.7 230.5,25.4 C230.3,25.3 230,25.2 229.8,25 C228.2,24 227.8,23.1 227.8,21.9 C227.8,19.9 229.3,18.1 233.3,17.8 C233.6,17.8 233.8,17.8 234.1,17.8 C234.8,17.8 235.4,17.8 236.1,17.9 C240.4,18.3 244.2,19.9 248.3,22.7 L257.3,6.4 C257.1,6.3 256.9,6.1 256.7,6 C256,5.5 255.2,5.1 254.3,4.6 C253.1,4 251.9,3.4 250.5,2.9 C249.7,2.6 248.9,2.3 248.1,2.1 C247.4,1.9 246.6,1.6 245.8,1.4 C245.5,1.3 245.3,1.3 245,1.2 C244.2,1 243.4,0.8 242.6,0.7 C240.2,0.3 237.6,0 235,0 C234.2,0 233.5,0 232.7,0.1 C232.5,0.1 232.4,0.1 232.2,0.1 C231.5,0.1 230.7,0.2 230,0.3 C229.9,0.3 229.8,0.3 229.7,0.3 C229,0.4 228.4,0.4 227.8,0.5 C227.7,0.5 227.5,0.5 227.4,0.6 C226.7,0.7 226,0.8 225.4,1 C225.3,1 225.2,1.1 225.1,1.1 C224.5,1.2 223.9,1.4 223.3,1.5 C223.2,1.5 223.1,1.6 223,1.6 C222.4,1.8 221.7,2 221.1,2.2 C221,2.2 220.9,2.3 220.8,2.3 C220.2,2.5 219.7,2.7 219.1,3 C219.1,3 219,3 219,3 C218.4,3.2 217.9,3.5 217.3,3.8 C217.2,3.9 217.1,3.9 217,4 C215.9,4.6 214.9,5.2 213.9,5.9 C213.8,6 213.7,6 213.7,6.1 C213.2,6.5 212.8,6.8 212.3,7.2 C212.3,7.2 212.3,7.2 212.2,7.3 C211.8,7.7 211.4,8.1 211,8.5 C210.9,8.6 210.9,8.6 210.8,8.7 C210.4,9.1 210,9.6 209.6,10 C209.6,10 209.5,10.1 209.5,10.1 C209.2,10.5 208.8,11 208.5,11.5 C208.5,11.5 208.4,11.6 208.4,11.6 C208.1,12.1 207.8,12.6 207.5,13.1 C207.5,13.2 207.4,13.2 207.4,13.3 C205.8,16.4 204.9,20.1 204.9,24.3 C204.9,32.4 208,37.6 214.1,41.4 C214.1,41.4 214.1,41.4 214.1,41.4 C214.4,41.6 214.7,41.8 215,41.9 C215.2,42 215.4,42.1 215.6,42.2 C216,42.4 216.5,42.7 216.9,42.9 C217.2,43.1 217.5,43.2 217.8,43.4 C218.1,43.5 218.4,43.7 218.6,43.8 C219,44 219.4,44.1 219.7,44.3 C219.9,44.4 220.1,44.5 220.3,44.6 C220.9,44.8 221.5,45 222.1,45.3 C222.3,45.4 222.5,45.4 222.7,45.5 C223.4,45.7 224.1,46 224.8,46.2 C224.8,46.2 224.8,46.2 224.8,46.2 C224.8,46.2 224.8,46.2 224.8,46.2 C225.3,46.3 225.7,46.5 226.1,46.6 C226.3,46.7 226.4,46.7 226.6,46.8 C226.9,46.9 227.1,47 227.3,47 C227.7,47.1 228.1,47.2 228.4,47.4 C228.5,47.4 228.6,47.5 228.7,47.5 C229,47.6 229.2,47.7 229.5,47.8 C229.5,47.8 229.6,47.8 229.6,47.8 C230.4,48.1 231.1,48.3 231.7,48.6 C235.1,50 236.4,51.4 236.4,53.7 C236.4,56.2 233.9,57.7 230.4,57.7 C224.3,57.7 218.6,55.3 212,50.3 C209.9,56.2 206.4,61.3 201.8,65.3 C208.6,71.2 218.9,75.5 230.8,75.5 C248.4,75.5 259.4,65.7 259.4,51.1 C259.4,50.2 259.4,49.4 259.3,48.6 C259.3,47.9 259.2,47.1 259.1,46.4 Z" fill="#FFFFFF" fill-rule="nonzero"></path>
            </g>
            <g clip-path="url(#clip-ghost-t)"> 
                <polygon class="letter letter-t" fill="#FFFFFF" fill-rule="nonzero" points="297.2 20 297.2 74.3 273.8 74.3 273.8 20 259.6 20 259.6 1.4 311.6 1.4 311.6 20"></polygon>
            </g>
        </g>
    </g>
</svg>