<svg  viewBox="0 0 13 18" version="1.1" xmlns="http://www.w3.org/2000/svg" xmlns:xlink="http://www.w3.org/1999/xlink">
    <g id="Page-1" stroke="none" stroke-width="1" fill="none" fill-rule="evenodd">
        <g id="phone" fill="#777777" fill-rule="nonzero" transform="translate(0, 5)">
            <path d="M8.2321484,9.169974 C8.0587326,9.1846605 7.8994307,9.0976692 7.7407072,9.0106721 C6.2798614,8.157707 5.036653,6.9431891 4.1689956,5.4970935 C4.0096937,5.2513729 3.8650842,4.9621538 3.9232751,4.6729347 C4.024389,4.1233027 4.7186277,3.9063883 4.9208497,3.3861409 C5.1089578,2.93761993 4.8632314,2.43148645 4.5740181,2.04115632 C4.0966908,1.39041328 3.4894464,0.82666736 2.7951758,0.40692364 C2.4624582,0.20413765 2.1009343,0.0307074 1.7106041,0.00190118 C-0.039461,-0.08509015 -0.1405429,2.83653784 0.0911215,3.9786642 C0.336842,5.1643469 0.9299728,6.2636399 1.6242722,7.2611567 C3.2585049,9.6324643 5.4999531,11.642971 8.2187575,12.5969602 C9.173412,12.9296779 10.1997639,13.1318999 11.1832536,12.9008716 C11.6746947,12.7850712 12.1379081,12.568154 12.4847397,12.1925163 C12.8315712,11.8309924 13.0196793,11.3101666 12.9332607,10.8187255 C12.8462693,10.312592 12.499432,9.9075695 12.1526004,9.5460456 C11.6464669,9.0252198 11.082721,8.5625849 10.4748403,8.1575624 C10.3590398,8.0852576 10.2432336,8.0129529 10.1133163,7.9982605 C9.9687068,7.983574 9.8387895,8.0558788 9.7082939,8.1281835 C9.34677,8.3304056 9.0140523,8.5767046 8.7248332,8.8512314 C8.5949101,8.9811544 8.4503064,9.1116443 8.2763121,9.1404505 C8.2616256,9.1557025 8.246939,9.169825 8.232251,9.169825 L8.2321484,9.169974 Z" id="Fill-1"></path>
        </g>
    </g>
</svg>